<?xml version="1.0" standalone="no"?>
<!DOCTYPE svg PUBLIC "-//W3C//DTD SVG 20010904//EN"
 "http://www.w3.org/TR/2001/REC-SVG-20010904/DTD/svg10.dtd">
<svg version="1.0" xmlns="http://www.w3.org/2000/svg"
 width="512.000000pt" height="512.000000pt" viewBox="0 0 512.000000 512.000000"
 preserveAspectRatio="xMidYMid meet">
<metadata>
Created by potrace 1.14, written by Peter Selinger 2001-2017
</metadata>
<g transform="translate(0.000000,512.000000) scale(0.100000,-0.100000)"
fill="#000000" stroke="none">
<path d="M2782 5104 c-86 -23 -111 -40 -263 -190 l-146 -144 -130 0 -129 0
-12 33 c-7 19 -22 39 -35 46 -17 9 -241 11 -922 9 l-900 -3 -46 -23 c-74 -36
-125 -87 -161 -160 l-33 -67 0 -1280 0 -1280 22 -48 c33 -70 103 -140 176
-173 l62 -29 1036 -3 c684 -2 1046 1 1063 8 16 6 33 24 42 45 l14 35 89 0 89
0 21 -63 c11 -34 115 -359 231 -722 116 -363 219 -671 229 -684 49 -68 119
-86 191 -49 42 21 55 40 199 281 l155 258 435 -435 c444 -443 471 -466 543
-466 62 0 111 37 301 228 187 189 217 229 217 292 0 70 -25 99 -466 541 l-435
435 258 155 c241 144 260 157 281 199 37 72 19 141 -49 192 -19 14 -810 272
-1591 519 l-128 40 0 95 c0 78 3 94 15 94 9 0 27 11 40 25 l25 24 0 504 c0
487 -1 504 -20 524 -10 12 -28 24 -40 28 -19 6 -20 14 -20 143 l0 137 120 120
c144 143 184 199 206 284 35 139 -5 239 -152 382 -106 103 -148 130 -232 148
-66 14 -84 13 -150 -5z m-152 -689 l175 -175 -763 -762 -762 -763 -180 180
-180 180 757 757 c417 417 763 758 768 758 6 0 89 -79 185 -175z m-1716 -1858
c-113 -38 -208 -66 -211 -63 -3 2 26 97 63 210 l69 206 143 -142 142 -143
-206 -68z"/>
</g>
</svg>
